<svg xmlns="http://www.w3.org/2000/svg" viewBox="0 0 40 40" width="40" height="40"><circle cx="20" cy="20" r="18" fill="#E1F5EE" stroke="#1D9E75" stroke-width="3"/><circle cx="20" cy="21" r="11" fill="#FAC775"/><path d="M10 18c2-7 6-10 10-10s8 3 10 10c-5-3-15-3-20 0Z" fill="#1D9E75"/><rect x="12" y="21" width="7" height="4" rx="2" fill="#111827"/><rect x="21" y="21" width="7" height="4" rx="2" fill="#111827"/><path d="M17 29c2 2 4 2 6 0" fill="none" stroke="#7A4D1D" stroke-width="2" stroke-linecap="round"/><path d="M31 9l2 3 3 .5-2.5 2 .5 3.5-3-1.8-3 1.8.5-3.5-2.5-2 3-.5 2-3Z" fill="#FAC775"/></svg>
