<svg xmlns="http://www.w3.org/2000/svg" viewBox="0 0 200 200" width="200" height="200" role="img" aria-label="Lux">
  <circle cx="100" cy="100" r="94" fill="#E1F5EE" stroke="#1D9E75" stroke-width="8"/>
  <circle cx="100" cy="108" r="54" fill="#FAC775"/>
  <path d="M48 93c8-32 29-50 52-50s44 18 52 50c-23-14-81-14-104 0Z" fill="#1D9E75"/>
  <path d="M67 74c10-20 27-31 52-28-8 8-12 17-12 31" fill="#0F766E"/>
  <rect x="61" y="103" width="34" height="19" rx="8" fill="#111827"/>
  <rect x="105" y="103" width="34" height="19" rx="8" fill="#111827"/>
  <path d="M95 112h10" stroke="#111827" stroke-width="5" stroke-linecap="round"/>
  <path d="M73 111h13M115 111h13" stroke="#fff" stroke-width="3" stroke-linecap="round" opacity=".7"/>
  <path d="M84 141c10 8 22 8 32 0" fill="none" stroke="#7A4D1D" stroke-width="6" stroke-linecap="round"/>
  <path d="M49 141c12 24 31 37 51 37s39-13 51-37c-18 10-84 10-102 0Z" fill="#1D9E75"/>
  <path d="M59 151l-16 18M141 151l16 18" stroke="#FAC775" stroke-width="8" stroke-linecap="round"/>
  <path d="M150 52l7 12 13 2-10 9 2 14-12-7-12 7 2-14-10-9 13-2 7-12Z" fill="#FAC775"/>
</svg>
