<svg xmlns="http://www.w3.org/2000/svg" viewBox="0 0 40 40" width="40" height="40"><circle cx="20" cy="20" r="18" fill="#E6F1FB" stroke="#378ADD" stroke-width="3"/><path d="M9 22c0-9 5-15 11-15s11 6 11 15c0 8-5 14-11 14S9 30 9 22Z" fill="#263A7A"/><path d="M12 20c2-7 5-10 8-10s6 3 8 10c-4-4-12-4-16 0Z" fill="#D4537E"/><circle cx="16" cy="22" r="3.8" fill="#fff"/><circle cx="24" cy="22" r="3.8" fill="#fff"/><circle cx="16" cy="22" r="2" fill="#378ADD"/><circle cx="24" cy="22" r="2" fill="#378ADD"/><path d="M17 29c2 1 4 1 6 0" fill="none" stroke="#D4537E" stroke-width="2" stroke-linecap="round"/></svg>
